<svg width="32" height="32" viewBox="0 0 32 32" fill="none" xmlns="http://www.w3.org/2000/svg">
  <rect width="32" height="32" rx="6" fill="#1a1a1a"/>

  <!-- Large, visible cursive "n" -->
  <path d="M8 12 C8 12, 9 11, 10.5 11 C12 11, 13 12, 14.5 14 C15.5 15, 16.5 15.5, 17.5 15.5 C19 15.5, 20 14, 20 12.5 C20 12, 20.5 11.5, 21.5 11.5 C22.5 11.5, 23 12, 23 12.5 C23 15.5, 21.5 17.5, 18.5 17.5 C16.5 17.5, 15 16.5, 13.5 15 C12.5 14, 11.5 13.5, 10.5 13.5 C9.5 13.5, 9 14.5, 9 15.5 L9 23 C9 24, 8.5 24.5, 7.5 24.5 C6.5 24.5, 6 24, 6 23 L6 13 C6 12.5, 7 12, 8 12 Z" fill="#cfa355" stroke="#cfa355" stroke-width="1"/>
</svg>
