<svg width="16" height="16" viewBox="0 0 16 16" fill="none" xmlns="http://www.w3.org/2000/svg">
  <rect width="16" height="16" rx="3" fill="#1a1a1a"/>

  <!-- Large, visible cursive "n" for 16px -->
  <path d="M4 6 C4 6, 4.5 5.5, 5.2 5.5 C6 5.5, 6.5 6, 7.2 7 C7.8 7.5, 8.2 7.8, 8.8 7.8 C9.5 7.8, 10 7, 10 6.2 C10 6, 10.2 5.8, 10.8 5.8 C11.2 5.8, 11.5 6, 11.5 6.2 C11.5 7.8, 10.8 8.8, 9.2 8.8 C8.2 8.8, 7.5 8.2, 6.8 7.5 C6.2 7, 5.8 6.8, 5.2 6.8 C4.8 6.8, 4.5 7.2, 4.5 7.8 L4.5 11.5 C4.5 12, 4.2 12.2, 3.8 12.2 C3.2 12.2, 3 12, 3 11.5 L3 6.5 C3 6.2, 3.5 6, 4 6 Z" fill="#cfa355" stroke="#cfa355" stroke-width="0.5"/>
</svg>
