<svg width="32" height="32" viewBox="0 0 32 32" fill="none" xmlns="http://www.w3.org/2000/svg">
  <!-- Background circle -->
  <circle cx="16" cy="16" r="16" fill="#000000"/>

  <!-- Elegant cursive N like the image -->
  <path d="M6 22 C6 20, 7 18, 9 16 C11 14, 13 13, 15 13 C16 13, 17 14, 17 15 C17 16, 16 17, 15 18 C14 19, 13 20, 12 21 C11 22, 10 23, 10 24 C10 25, 11 25, 12 24 C13 23, 14 21, 15 19 C16 17, 17 15, 18 13 C19 11, 20 9, 21 8 C22 7, 23 7, 24 8 C25 9, 26 11, 26 13 C26 15, 25 17, 24 19 C23 21, 22 23, 21 24 C20 25, 19 25, 20 24 C21 23, 22 22, 23 21"
        stroke="#cfa355"
        stroke-width="3"
        stroke-linecap="round"
        stroke-linejoin="round"
        fill="none"/>
</svg>
